<?xml version="1.0" encoding="utf-8"?>
<!-- Generator: Adobe Illustrator 19.0.0, SVG Export Plug-In . SVG Version: 6.00 Build 0)  -->
<svg version="1.1" id="Layer_1" xmlns="http://www.w3.org/2000/svg" xmlns:xlink="http://www.w3.org/1999/xlink" x="0px" y="0px"
	 viewBox="-254 390.6 86.7 61.3" style="enable-background:new -254 390.6 86.7 61.3;" xml:space="preserve">
<style type="text/css">
	.st0{fill:none;stroke:#000000;stroke-width:2;stroke-linecap:round;stroke-linejoin:round;stroke-miterlimit:10;}
	.st1{stroke:#000000;stroke-width:2;stroke-linecap:round;stroke-linejoin:round;stroke-miterlimit:10;}
	.st2{fill:none;}
</style>
<g id="XMLID_1_">
	<path id="XMLID_75_" class="st0" d="M-211.2,443.6c-12.8,0-23.1-10.4-23.1-23.1c0-12.7,10.3-23.1,23.1-23.1s23.1,10.3,23.1,23.1"/>
	<polygon id="XMLID_67_" class="st1" points="-187.9,424.9 -190.1,421.7 -192.3,418.5 -188.4,418.2 -184.5,417.9 -186.2,421.4 	"/>
</g>
<g id="XMLID_2_">
	<g id="XMLID_4_">
		<path class="st2" d="M-211.2,444.6c-0.6,0-1-0.4-1-1s0.4-1,1-1c12.2,0,22.1-9.9,22.1-22.1c0-12.2-9.9-22.1-22.1-22.1
			c-12.2,0-22.1,9.9-22.1,22.1c0,0.6-0.4,1-1,1s-1-0.4-1-1c0-13.3,10.8-24.1,24.1-24.1c13.3,0,24.1,10.8,24.1,24.1
			C-187.1,433.8-197.9,444.6-211.2,444.6z"/>
	</g>
	<g id="XMLID_3_">
		<polygon class="st2" points="-236.2,421.4 -237.9,417.9 -234,418.2 -230.1,418.5 -232.3,421.7 -234.5,424.9 		"/>
		<path class="st2" d="M-234.5,425.9C-234.5,425.9-234.5,425.9-234.5,425.9c-0.4,0-0.7-0.2-0.9-0.6l-1.7-3.5l0,0l-1.7-3.5
			c-0.2-0.3-0.1-0.7,0.1-1c0.2-0.3,0.5-0.5,0.9-0.4l7.8,0.6c0.4,0,0.7,0.2,0.8,0.6c0.2,0.3,0.1,0.7-0.1,1l-4.4,6.4
			C-233.9,425.7-234.2,425.9-234.5,425.9z M-235.3,421l0.9,2l2.4-3.6l-4.3-0.3L-235.3,421z"/>
	</g>
</g>
</svg>
